<svg xmlns="http://www.w3.org/2000/svg" width="1320" height="1200" viewBox="0 0 1320 1200"><rect width="1320" height="1200" fill="#ffffff"/><g transform="translate(234.4286 295) scale(610)"><g fill="#12161f" stroke="#12161f" stroke-width="0.023" stroke-linejoin="round" stroke-linecap="round"><ellipse cx="0" cy="0.295" rx="0.25" ry="0.245" fill="#232a36"/><path d="M -0.150 0.470 C -0.185 0.545 -0.196 0.650 -0.188 0.730 C -0.180 0.840 -0.108 0.930 0 0.930 C 0.108 0.930 0.180 0.840 0.188 0.730 C 0.196 0.650 0.185 0.545 0.150 0.470 Z" fill="#232a36"/></g><g fill="#232a36"><ellipse cx="0" cy="0.295" rx="0.25" ry="0.245" fill="#232a36"/><path d="M -0.150 0.470 C -0.185 0.545 -0.196 0.650 -0.188 0.730 C -0.180 0.840 -0.108 0.930 0 0.930 C 0.108 0.930 0.180 0.840 0.188 0.730 C 0.196 0.650 0.185 0.545 0.150 0.470 Z" fill="#232a36"/></g><clipPath id="front-rim"><ellipse cx="0" cy="0.295" rx="0.25" ry="0.245" fill="#232a36"/><path d="M -0.150 0.470 C -0.185 0.545 -0.196 0.650 -0.188 0.730 C -0.180 0.840 -0.108 0.930 0 0.930 C 0.108 0.930 0.180 0.840 0.188 0.730 C 0.196 0.650 0.185 0.545 0.150 0.470 Z" fill="#232a36"/></clipPath><g clip-path="url(#front-rim)"><ellipse cx="-0.085" cy="0.205" rx="0.2" ry="0.135" fill="#2f3949" opacity="0.5" transform="rotate(-24 -0.085 0.205)"/><ellipse cx="-0.1" cy="0.7" rx="0.1" ry="0.16" fill="#2f3949" opacity="0.35" transform="rotate(18 -0.10 0.70)"/></g><g transform="scale(1 1)"><g fill="#12161f" stroke="#12161f" stroke-width="0.023" stroke-linejoin="round" stroke-linecap="round"><ellipse cx="-0.07" cy="0.064" rx="0.036" ry="0.054" fill="#232a36" transform="rotate(-30 -0.070 0.064)"/><ellipse cx="-0.028" cy="0.052" rx="0.029" ry="0.05" fill="#232a36" transform="rotate(-14 -0.028 0.052)"/><ellipse cx="0.012" cy="0.044" rx="0.021" ry="0.04" fill="#232a36" transform="rotate(2 0.012 0.044)"/></g><g fill="#232a36"><ellipse cx="-0.07" cy="0.064" rx="0.036" ry="0.054" fill="#232a36" transform="rotate(-30 -0.070 0.064)"/><ellipse cx="-0.028" cy="0.052" rx="0.029" ry="0.05" fill="#232a36" transform="rotate(-14 -0.028 0.052)"/><ellipse cx="0.012" cy="0.044" rx="0.021" ry="0.04" fill="#232a36" transform="rotate(2 0.012 0.044)"/></g></g><path d="M 0 0.186 C 0.085 0.193 0.163 0.250 0.186 0.325 C 0.198 0.378 0.190 0.422 0.168 0.454 C 0.138 0.494 0.090 0.522 0 0.524 C -0.090 0.522 -0.138 0.494 -0.168 0.454 C -0.190 0.422 -0.198 0.378 -0.186 0.325 C -0.163 0.250 -0.085 0.193 0 0.186 Z" fill="#f9f4ea"/><path d="M 0 0.500 C 0.098 0.510 0.146 0.598 0.146 0.706 C 0.146 0.828 0.084 0.898 0 0.898 C -0.084 0.898 -0.146 0.828 -0.146 0.706 C -0.146 0.598 -0.098 0.510 0 0.500 Z" fill="#f9f4ea"/><ellipse cx="-0.14" cy="0.398" rx="0.04" ry="0.027" fill="#f5ab92" opacity="0.75"/><ellipse cx="0.14" cy="0.398" rx="0.04" ry="0.027" fill="#f5ab92" opacity="0.75"/><clipPath id="front-L-clip"><ellipse cx="-0.107" cy="0.32" rx="0.053" ry="0.07" fill="#000"/></clipPath><ellipse cx="-0.107" cy="0.32" rx="0.053" ry="0.07" fill="#151a24"/><g clip-path="url(#front-L-clip)"><ellipse cx="-0.107" cy="0.3438" rx="0.04876" ry="0.0434" fill="#41536b" opacity="0.55"/></g><circle cx="-0.12608" cy="0.2948" r="0.02332" fill="#ffffff"/><circle cx="-0.08898" cy="0.3494" r="0.01113" fill="#ffffff" opacity="0.92"/><clipPath id="front-R-clip"><ellipse cx="0.107" cy="0.32" rx="0.053" ry="0.07" fill="#000"/></clipPath><ellipse cx="0.107" cy="0.32" rx="0.053" ry="0.07" fill="#151a24"/><g clip-path="url(#front-R-clip)"><ellipse cx="0.107" cy="0.3438" rx="0.04876" ry="0.0434" fill="#41536b" opacity="0.55"/></g><circle cx="0.08792" cy="0.2948" r="0.02332" fill="#ffffff"/><circle cx="0.12502" cy="0.3494" r="0.01113" fill="#ffffff" opacity="0.92"/><g fill="#12161f" stroke="#12161f" stroke-width="0.023" stroke-linejoin="round" stroke-linecap="round"><path d="M -0.050 0.350 C -0.032 0.334 0.032 0.334 0.050 0.350 C 0.043 0.390 0.026 0.422 0 0.436 C -0.026 0.422 -0.043 0.390 -0.050 0.350 Z" fill="#f5a623"/><path d="M -0.030 0.366 C -0.013 0.375 0.013 0.375 0.030 0.366" fill="none" stroke="#d9821a" stroke-width="0.007" stroke-linecap="round"/></g><g fill="#f5a623"><path d="M -0.050 0.350 C -0.032 0.334 0.032 0.334 0.050 0.350 C 0.043 0.390 0.026 0.422 0 0.436 C -0.026 0.422 -0.043 0.390 -0.050 0.350 Z" fill="#f5a623"/><path d="M -0.030 0.366 C -0.013 0.375 0.013 0.375 0.030 0.366" fill="none" stroke="#d9821a" stroke-width="0.007" stroke-linecap="round"/></g><g transform="translate(-0.105 0.932) rotate(7) scale(1)"><g fill="#12161f" stroke="#12161f" stroke-width="0.023" stroke-linejoin="round" stroke-linecap="round"><path d="M 0 -0.048 C -0.056 -0.032 -0.080 0.012 -0.078 0.044 C -0.076 0.062 -0.060 0.070 -0.040 0.066 L 0.040 0.066 C 0.060 0.070 0.076 0.062 0.078 0.044 C 0.080 0.012 0.056 -0.032 0 -0.048 Z" fill="#f5a623"/></g><g fill="#f5a623"><path d="M 0 -0.048 C -0.056 -0.032 -0.080 0.012 -0.078 0.044 C -0.076 0.062 -0.060 0.070 -0.040 0.066 L 0.040 0.066 C 0.060 0.070 0.076 0.062 0.078 0.044 C 0.080 0.012 0.056 -0.032 0 -0.048 Z" fill="#f5a623"/></g><path d="M -0.031 0.006 L -0.037 0.050" fill="none" stroke="#d9821a" stroke-width="0.0065" stroke-linecap="round"/><path d="M 0.031 0.006 L 0.037 0.050" fill="none" stroke="#d9821a" stroke-width="0.0065" stroke-linecap="round"/></g><g transform="translate(0.105 0.932) rotate(-7) scale(1)"><g fill="#12161f" stroke="#12161f" stroke-width="0.023" stroke-linejoin="round" stroke-linecap="round"><path d="M 0 -0.048 C -0.056 -0.032 -0.080 0.012 -0.078 0.044 C -0.076 0.062 -0.060 0.070 -0.040 0.066 L 0.040 0.066 C 0.060 0.070 0.076 0.062 0.078 0.044 C 0.080 0.012 0.056 -0.032 0 -0.048 Z" fill="#f5a623"/></g><g fill="#f5a623"><path d="M 0 -0.048 C -0.056 -0.032 -0.080 0.012 -0.078 0.044 C -0.076 0.062 -0.060 0.070 -0.040 0.066 L 0.040 0.066 C 0.060 0.070 0.076 0.062 0.078 0.044 C 0.080 0.012 0.056 -0.032 0 -0.048 Z" fill="#f5a623"/></g><path d="M -0.031 0.006 L -0.037 0.050" fill="none" stroke="#d9821a" stroke-width="0.0065" stroke-linecap="round"/><path d="M 0.031 0.006 L 0.037 0.050" fill="none" stroke="#d9821a" stroke-width="0.0065" stroke-linecap="round"/></g><g transform="scale(-1 1)"><g fill="#12161f" stroke="#12161f" stroke-width="0.023" stroke-linejoin="round" stroke-linecap="round"><path d="M -0.112 0.545 C -0.170 0.592 -0.216 0.648 -0.244 0.696 C -0.264 0.740 -0.312 0.736 -0.316 0.694 C -0.310 0.634 -0.256 0.564 -0.152 0.504 C -0.126 0.510 -0.108 0.526 -0.112 0.545 Z" fill="#232a36"/></g><g fill="#232a36"><path d="M -0.112 0.545 C -0.170 0.592 -0.216 0.648 -0.244 0.696 C -0.264 0.740 -0.312 0.736 -0.316 0.694 C -0.310 0.634 -0.256 0.564 -0.152 0.504 C -0.126 0.510 -0.108 0.526 -0.112 0.545 Z" fill="#232a36"/></g></g><g transform="scale(1 1)"><g fill="#12161f" stroke="#12161f" stroke-width="0.023" stroke-linejoin="round" stroke-linecap="round"><path d="M -0.112 0.545 C -0.170 0.592 -0.216 0.648 -0.244 0.696 C -0.264 0.740 -0.312 0.736 -0.316 0.694 C -0.310 0.634 -0.256 0.564 -0.152 0.504 C -0.126 0.510 -0.108 0.526 -0.112 0.545 Z" fill="#232a36"/></g><g fill="#232a36"><path d="M -0.112 0.545 C -0.170 0.592 -0.216 0.648 -0.244 0.696 C -0.264 0.740 -0.312 0.736 -0.316 0.694 C -0.310 0.634 -0.256 0.564 -0.152 0.504 C -0.126 0.510 -0.108 0.526 -0.112 0.545 Z" fill="#232a36"/></g></g><g fill="#12161f" stroke="#12161f" stroke-width="0.023" stroke-linejoin="round" stroke-linecap="round"><path d="M -0.164 0.466 C -0.092 0.444 0.092 0.444 0.164 0.466 C 0.174 0.500 0.172 0.534 0.162 0.564 C 0.082 0.590 -0.082 0.590 -0.162 0.564 C -0.172 0.534 -0.174 0.500 -0.164 0.466 Z" fill="#5ab7a8"/><path d="M -0.142 0.514 C -0.168 0.594 -0.180 0.672 -0.176 0.740 L -0.134 0.708 L -0.094 0.746 C -0.086 0.674 -0.072 0.598 -0.054 0.516 C -0.088 0.526 -0.114 0.521 -0.142 0.514 Z" fill="#5ab7a8"/></g><g fill="#5ab7a8"><path d="M -0.164 0.466 C -0.092 0.444 0.092 0.444 0.164 0.466 C 0.174 0.500 0.172 0.534 0.162 0.564 C 0.082 0.590 -0.082 0.590 -0.162 0.564 C -0.172 0.534 -0.174 0.500 -0.164 0.466 Z" fill="#5ab7a8"/><path d="M -0.142 0.514 C -0.168 0.594 -0.180 0.672 -0.176 0.740 L -0.134 0.708 L -0.094 0.746 C -0.086 0.674 -0.072 0.598 -0.054 0.516 C -0.088 0.526 -0.114 0.521 -0.142 0.514 Z" fill="#5ab7a8"/></g><g opacity="0.5"><path d="M -0.120 0.486 C -0.068 0.472 0.068 0.472 0.120 0.486" fill="none" stroke="#3f9a8c" stroke-width="0.009" stroke-linecap="round"/></g><path d="M -0.150 0.596 C -0.132 0.606 -0.108 0.610 -0.082 0.606" fill="none" stroke="#3f9a8c" stroke-width="0.010" stroke-linecap="round" opacity="0.8"/><path d="M -0.146 0.644 C -0.146 0.670 -0.150 0.694 -0.158 0.712" fill="none" stroke="#3f9a8c" stroke-width="0.009" stroke-linecap="round" opacity="0.7"/></g><g transform="translate(641.2643 295) scale(610)"><g fill="#12161f" stroke="#12161f" stroke-width="0.023" stroke-linejoin="round" stroke-linecap="round"><ellipse cx="0" cy="0.295" rx="0.25" ry="0.245" fill="#232a36"/><path d="M -0.150 0.470 C -0.185 0.545 -0.196 0.650 -0.188 0.730 C -0.180 0.840 -0.108 0.930 0 0.930 C 0.108 0.930 0.180 0.840 0.188 0.730 C 0.196 0.650 0.185 0.545 0.150 0.470 Z" fill="#232a36"/></g><g fill="#232a36"><ellipse cx="0" cy="0.295" rx="0.25" ry="0.245" fill="#232a36"/><path d="M -0.150 0.470 C -0.185 0.545 -0.196 0.650 -0.188 0.730 C -0.180 0.840 -0.108 0.930 0 0.930 C 0.108 0.930 0.180 0.840 0.188 0.730 C 0.196 0.650 0.185 0.545 0.150 0.470 Z" fill="#232a36"/></g><clipPath id="side-rim"><ellipse cx="0" cy="0.295" rx="0.25" ry="0.245" fill="#232a36"/><path d="M -0.150 0.470 C -0.185 0.545 -0.196 0.650 -0.188 0.730 C -0.180 0.840 -0.108 0.930 0 0.930 C 0.108 0.930 0.180 0.840 0.188 0.730 C 0.196 0.650 0.185 0.545 0.150 0.470 Z" fill="#232a36"/></clipPath><g clip-path="url(#side-rim)"><ellipse cx="-0.085" cy="0.205" rx="0.2" ry="0.135" fill="#2f3949" opacity="0.5" transform="rotate(-24 -0.085 0.205)"/><ellipse cx="-0.1" cy="0.7" rx="0.1" ry="0.16" fill="#2f3949" opacity="0.35" transform="rotate(18 -0.10 0.70)"/></g><g transform="scale(1 1)"><g fill="#12161f" stroke="#12161f" stroke-width="0.023" stroke-linejoin="round" stroke-linecap="round"><ellipse cx="-0.07" cy="0.064" rx="0.036" ry="0.054" fill="#232a36" transform="rotate(-30 -0.070 0.064)"/><ellipse cx="-0.028" cy="0.052" rx="0.029" ry="0.05" fill="#232a36" transform="rotate(-14 -0.028 0.052)"/><ellipse cx="0.012" cy="0.044" rx="0.021" ry="0.04" fill="#232a36" transform="rotate(2 0.012 0.044)"/></g><g fill="#232a36"><ellipse cx="-0.07" cy="0.064" rx="0.036" ry="0.054" fill="#232a36" transform="rotate(-30 -0.070 0.064)"/><ellipse cx="-0.028" cy="0.052" rx="0.029" ry="0.05" fill="#232a36" transform="rotate(-14 -0.028 0.052)"/><ellipse cx="0.012" cy="0.044" rx="0.021" ry="0.04" fill="#232a36" transform="rotate(2 0.012 0.044)"/></g></g><path d="M -0.010 0.312 C 0.028 0.216 0.084 0.185 0.134 0.186 C 0.180 0.190 0.212 0.236 0.222 0.320 C 0.228 0.394 0.182 0.452 0.126 0.482 C 0.068 0.512 0.004 0.516 -0.012 0.472 C -0.026 0.428 -0.026 0.372 -0.010 0.312 Z" fill="#f9f4ea"/><path d="M 0.100 0.520 C 0.160 0.590 0.176 0.676 0.162 0.748 C 0.146 0.828 0.092 0.888 0.016 0.904 C -0.030 0.912 -0.050 0.884 -0.034 0.850 C 0.006 0.772 0.026 0.646 0.050 0.532 Z" fill="#f9f4ea"/><circle cx="0.142" cy="0.398" r="0.033" fill="#f5ab92" opacity="0.72"/><g transform="translate(-0.055 0.07) scale(0.93)"><g fill="#12161f" stroke="#12161f" stroke-width="0.023" stroke-linejoin="round" stroke-linecap="round"><path d="M 0.012 0.886 C 0.072 0.902 0.140 0.928 0.184 0.950 C 0.204 0.960 0.210 0.974 0.196 0.984 C 0.168 0.998 0.118 1.002 0.078 0.996 C 0.038 0.990 0.010 0.966 0.002 0.932 C -0.002 0.912 0.000 0.896 0.012 0.886 Z" fill="#d9821a"/></g><g fill="#d9821a"><path d="M 0.012 0.886 C 0.072 0.902 0.140 0.928 0.184 0.950 C 0.204 0.960 0.210 0.974 0.196 0.984 C 0.168 0.998 0.118 1.002 0.078 0.996 C 0.038 0.990 0.010 0.966 0.002 0.932 C -0.002 0.912 0.000 0.896 0.012 0.886 Z" fill="#d9821a"/></g><path d="M 0.144 0.944 L 0.140 0.994" fill="none" stroke="#d9821a" stroke-width="0.0065" stroke-linecap="round"/><path d="M 0.172 0.956 L 0.168 0.998" fill="none" stroke="#d9821a" stroke-width="0.0065" stroke-linecap="round"/></g><g fill="#12161f" stroke="#12161f" stroke-width="0.023" stroke-linejoin="round" stroke-linecap="round"><path d="M 0.176 0.334 C 0.244 0.332 0.288 0.350 0.308 0.370 C 0.316 0.378 0.316 0.386 0.306 0.392 C 0.286 0.412 0.242 0.428 0.180 0.424 Z" fill="#f5a623"/></g><g fill="#f5a623"><path d="M 0.176 0.334 C 0.244 0.332 0.288 0.350 0.308 0.370 C 0.316 0.378 0.316 0.386 0.306 0.392 C 0.286 0.412 0.242 0.428 0.180 0.424 Z" fill="#f5a623"/></g><path d="M 0.200 0.374 C 0.246 0.372 0.282 0.376 0.302 0.378" fill="none" stroke="#d9821a" stroke-width="0.007" stroke-linecap="round"/><clipPath id="side-L-clip"><ellipse cx="0.122" cy="0.318" rx="0.043" ry="0.068" fill="#000"/></clipPath><ellipse cx="0.122" cy="0.318" rx="0.043" ry="0.068" fill="#151a24"/><g clip-path="url(#side-L-clip)"><ellipse cx="0.122" cy="0.34112" rx="0.03956" ry="0.04216" fill="#41536b" opacity="0.55"/></g><circle cx="0.10652" cy="0.29352" r="0.01892" fill="#ffffff"/><circle cx="0.13662" cy="0.34656" r="0.009029999999999998" fill="#ffffff" opacity="0.92"/><g transform="translate(0 0) scale(1)"><g fill="#12161f" stroke="#12161f" stroke-width="0.023" stroke-linejoin="round" stroke-linecap="round"><path d="M 0.012 0.886 C 0.072 0.902 0.140 0.928 0.184 0.950 C 0.204 0.960 0.210 0.974 0.196 0.984 C 0.168 0.998 0.118 1.002 0.078 0.996 C 0.038 0.990 0.010 0.966 0.002 0.932 C -0.002 0.912 0.000 0.896 0.012 0.886 Z" fill="#f5a623"/></g><g fill="#f5a623"><path d="M 0.012 0.886 C 0.072 0.902 0.140 0.928 0.184 0.950 C 0.204 0.960 0.210 0.974 0.196 0.984 C 0.168 0.998 0.118 1.002 0.078 0.996 C 0.038 0.990 0.010 0.966 0.002 0.932 C -0.002 0.912 0.000 0.896 0.012 0.886 Z" fill="#f5a623"/></g><path d="M 0.144 0.944 L 0.140 0.994" fill="none" stroke="#d9821a" stroke-width="0.0065" stroke-linecap="round"/><path d="M 0.172 0.956 L 0.168 0.998" fill="none" stroke="#d9821a" stroke-width="0.0065" stroke-linecap="round"/></g><g fill="#12161f" stroke="#12161f" stroke-width="0.023" stroke-linejoin="round" stroke-linecap="round"><path d="M 0.063 0.575 C 0.018 0.632 -0.090 0.694 -0.162 0.740 C -0.190 0.764 -0.228 0.746 -0.220 0.704 C -0.198 0.666 -0.082 0.596 0.017 0.515 C 0.038 0.518 0.058 0.545 0.063 0.575 Z" fill="#232a36"/></g><g fill="#232a36"><path d="M 0.063 0.575 C 0.018 0.632 -0.090 0.694 -0.162 0.740 C -0.190 0.764 -0.228 0.746 -0.220 0.704 C -0.198 0.666 -0.082 0.596 0.017 0.515 C 0.038 0.518 0.058 0.545 0.063 0.575 Z" fill="#232a36"/></g><g fill="#12161f" stroke="#12161f" stroke-width="0.023" stroke-linejoin="round" stroke-linecap="round"><path d="M -0.158 0.466 C -0.078 0.444 0.078 0.444 0.158 0.466 C 0.168 0.500 0.166 0.534 0.156 0.564 C 0.078 0.590 -0.078 0.590 -0.156 0.564 C -0.166 0.534 -0.168 0.500 -0.158 0.466 Z" fill="#5ab7a8"/><path d="M 0.026 0.514 C 0.052 0.592 0.066 0.676 0.062 0.744 L 0.104 0.712 L 0.144 0.750 C 0.146 0.678 0.146 0.596 0.152 0.516 C 0.112 0.526 0.058 0.521 0.026 0.514 Z" fill="#5ab7a8"/></g><g fill="#5ab7a8"><path d="M -0.158 0.466 C -0.078 0.444 0.078 0.444 0.158 0.466 C 0.168 0.500 0.166 0.534 0.156 0.564 C 0.078 0.590 -0.078 0.590 -0.156 0.564 C -0.166 0.534 -0.168 0.500 -0.158 0.466 Z" fill="#5ab7a8"/><path d="M 0.026 0.514 C 0.052 0.592 0.066 0.676 0.062 0.744 L 0.104 0.712 L 0.144 0.750 C 0.146 0.678 0.146 0.596 0.152 0.516 C 0.112 0.526 0.058 0.521 0.026 0.514 Z" fill="#5ab7a8"/></g><g opacity="0.5"><path d="M -0.108 0.486 C -0.060 0.472 0.060 0.472 0.108 0.486" fill="none" stroke="#3f9a8c" stroke-width="0.009" stroke-linecap="round"/></g><path d="M 0.052 0.596 C 0.072 0.606 0.096 0.610 0.120 0.606" fill="none" stroke="#3f9a8c" stroke-width="0.010" stroke-linecap="round" opacity="0.8"/><path d="M 0.098 0.644 C 0.098 0.670 0.094 0.692 0.086 0.710" fill="none" stroke="#3f9a8c" stroke-width="0.009" stroke-linecap="round" opacity="0.7"/></g><g transform="translate(1086.4429 295) scale(610)"><g fill="#12161f" stroke="#12161f" stroke-width="0.023" stroke-linejoin="round" stroke-linecap="round"><ellipse cx="0" cy="0.295" rx="0.25" ry="0.245" fill="#232a36"/><path d="M -0.150 0.470 C -0.185 0.545 -0.196 0.650 -0.188 0.730 C -0.180 0.840 -0.108 0.930 0 0.930 C 0.108 0.930 0.180 0.840 0.188 0.730 C 0.196 0.650 0.185 0.545 0.150 0.470 Z" fill="#232a36"/></g><g fill="#232a36"><ellipse cx="0" cy="0.295" rx="0.25" ry="0.245" fill="#232a36"/><path d="M -0.150 0.470 C -0.185 0.545 -0.196 0.650 -0.188 0.730 C -0.180 0.840 -0.108 0.930 0 0.930 C 0.108 0.930 0.180 0.840 0.188 0.730 C 0.196 0.650 0.185 0.545 0.150 0.470 Z" fill="#232a36"/></g><clipPath id="back-rim"><ellipse cx="0" cy="0.295" rx="0.25" ry="0.245" fill="#232a36"/><path d="M -0.150 0.470 C -0.185 0.545 -0.196 0.650 -0.188 0.730 C -0.180 0.840 -0.108 0.930 0 0.930 C 0.108 0.930 0.180 0.840 0.188 0.730 C 0.196 0.650 0.185 0.545 0.150 0.470 Z" fill="#232a36"/></clipPath><g clip-path="url(#back-rim)"><ellipse cx="-0.085" cy="0.205" rx="0.2" ry="0.135" fill="#2f3949" opacity="0.5" transform="rotate(-24 -0.085 0.205)"/><ellipse cx="-0.1" cy="0.7" rx="0.1" ry="0.16" fill="#2f3949" opacity="0.35" transform="rotate(18 -0.10 0.70)"/></g><g transform="scale(-1 1)"><g fill="#12161f" stroke="#12161f" stroke-width="0.023" stroke-linejoin="round" stroke-linecap="round"><ellipse cx="-0.07" cy="0.064" rx="0.036" ry="0.054" fill="#232a36" transform="rotate(-30 -0.070 0.064)"/><ellipse cx="-0.028" cy="0.052" rx="0.029" ry="0.05" fill="#232a36" transform="rotate(-14 -0.028 0.052)"/><ellipse cx="0.012" cy="0.044" rx="0.021" ry="0.04" fill="#232a36" transform="rotate(2 0.012 0.044)"/></g><g fill="#232a36"><ellipse cx="-0.07" cy="0.064" rx="0.036" ry="0.054" fill="#232a36" transform="rotate(-30 -0.070 0.064)"/><ellipse cx="-0.028" cy="0.052" rx="0.029" ry="0.05" fill="#232a36" transform="rotate(-14 -0.028 0.052)"/><ellipse cx="0.012" cy="0.044" rx="0.021" ry="0.04" fill="#232a36" transform="rotate(2 0.012 0.044)"/></g></g><g transform="translate(-0.105 0.93) rotate(0) scale(0.94)"><g fill="#12161f" stroke="#12161f" stroke-width="0.023" stroke-linejoin="round" stroke-linecap="round"><path d="M 0 -0.048 C -0.056 -0.032 -0.080 0.012 -0.078 0.044 C -0.076 0.062 -0.060 0.070 -0.040 0.066 L 0.040 0.066 C 0.060 0.070 0.076 0.062 0.078 0.044 C 0.080 0.012 0.056 -0.032 0 -0.048 Z" fill="#f5a623"/></g><g fill="#f5a623"><path d="M 0 -0.048 C -0.056 -0.032 -0.080 0.012 -0.078 0.044 C -0.076 0.062 -0.060 0.070 -0.040 0.066 L 0.040 0.066 C 0.060 0.070 0.076 0.062 0.078 0.044 C 0.080 0.012 0.056 -0.032 0 -0.048 Z" fill="#f5a623"/></g></g><g transform="translate(0.105 0.93) rotate(0) scale(0.94)"><g fill="#12161f" stroke="#12161f" stroke-width="0.023" stroke-linejoin="round" stroke-linecap="round"><path d="M 0 -0.048 C -0.056 -0.032 -0.080 0.012 -0.078 0.044 C -0.076 0.062 -0.060 0.070 -0.040 0.066 L 0.040 0.066 C 0.060 0.070 0.076 0.062 0.078 0.044 C 0.080 0.012 0.056 -0.032 0 -0.048 Z" fill="#f5a623"/></g><g fill="#f5a623"><path d="M 0 -0.048 C -0.056 -0.032 -0.080 0.012 -0.078 0.044 C -0.076 0.062 -0.060 0.070 -0.040 0.066 L 0.040 0.066 C 0.060 0.070 0.076 0.062 0.078 0.044 C 0.080 0.012 0.056 -0.032 0 -0.048 Z" fill="#f5a623"/></g></g><g transform="scale(-1 1)"><g fill="#12161f" stroke="#12161f" stroke-width="0.023" stroke-linejoin="round" stroke-linecap="round"><path d="M -0.112 0.545 C -0.170 0.592 -0.216 0.648 -0.244 0.696 C -0.264 0.740 -0.312 0.736 -0.316 0.694 C -0.310 0.634 -0.256 0.564 -0.152 0.504 C -0.126 0.510 -0.108 0.526 -0.112 0.545 Z" fill="#232a36"/></g><g fill="#232a36"><path d="M -0.112 0.545 C -0.170 0.592 -0.216 0.648 -0.244 0.696 C -0.264 0.740 -0.312 0.736 -0.316 0.694 C -0.310 0.634 -0.256 0.564 -0.152 0.504 C -0.126 0.510 -0.108 0.526 -0.112 0.545 Z" fill="#232a36"/></g></g><g transform="scale(1 1)"><g fill="#12161f" stroke="#12161f" stroke-width="0.023" stroke-linejoin="round" stroke-linecap="round"><path d="M -0.112 0.545 C -0.170 0.592 -0.216 0.648 -0.244 0.696 C -0.264 0.740 -0.312 0.736 -0.316 0.694 C -0.310 0.634 -0.256 0.564 -0.152 0.504 C -0.126 0.510 -0.108 0.526 -0.112 0.545 Z" fill="#232a36"/></g><g fill="#232a36"><path d="M -0.112 0.545 C -0.170 0.592 -0.216 0.648 -0.244 0.696 C -0.264 0.740 -0.312 0.736 -0.316 0.694 C -0.310 0.634 -0.256 0.564 -0.152 0.504 C -0.126 0.510 -0.108 0.526 -0.112 0.545 Z" fill="#232a36"/></g></g><g fill="#12161f" stroke="#12161f" stroke-width="0.023" stroke-linejoin="round" stroke-linecap="round"><path d="M -0.162 0.470 C -0.086 0.448 0.086 0.448 0.162 0.470 C 0.172 0.504 0.170 0.536 0.160 0.566 C 0.082 0.592 -0.082 0.592 -0.160 0.566 C -0.170 0.536 -0.172 0.504 -0.162 0.470 Z" fill="#5ab7a8"/><path d="M 0.124 0.512 C 0.156 0.592 0.168 0.674 0.164 0.742 L 0.122 0.710 L 0.080 0.748 C 0.072 0.676 0.060 0.596 0.042 0.514 C 0.076 0.524 0.098 0.519 0.124 0.512 Z" fill="#5ab7a8"/></g><g fill="#5ab7a8"><path d="M -0.162 0.470 C -0.086 0.448 0.086 0.448 0.162 0.470 C 0.172 0.504 0.170 0.536 0.160 0.566 C 0.082 0.592 -0.082 0.592 -0.160 0.566 C -0.170 0.536 -0.172 0.504 -0.162 0.470 Z" fill="#5ab7a8"/><path d="M 0.124 0.512 C 0.156 0.592 0.168 0.674 0.164 0.742 L 0.122 0.710 L 0.080 0.748 C 0.072 0.676 0.060 0.596 0.042 0.514 C 0.076 0.524 0.098 0.519 0.124 0.512 Z" fill="#5ab7a8"/></g><g opacity="0.5"><path d="M -0.118 0.490 C -0.066 0.476 0.066 0.476 0.118 0.490" fill="none" stroke="#3f9a8c" stroke-width="0.009" stroke-linecap="round"/></g><path d="M 0.152 0.642 C 0.152 0.668 0.148 0.690 0.140 0.708" fill="none" stroke="#3f9a8c" stroke-width="0.009" stroke-linecap="round" opacity="0.7"/></g></svg>